<svg xmlns="http://www.w3.org/2000/svg" version="1.1" width="459px" height="61px" viewBox="-0.5 -0.5 459 61">
    <defs/>
    <g>
        <rect x="25.5" y="20" width="65" height="40" fill="#ffcccc" stroke="#ff0000" stroke-width="2" pointer-events="all"/>
        <g transform="translate(-0.5 -0.5)">
            <text x="58" y="49" fill="#ff0000" font-family="Helvetica" font-size="24px" text-anchor="middle">
                1
            </text>
        </g>
        <path d="M 41.75 19 L 41.75 10 L 35.5 10 L 8 10 L 8 40 L 16.5 40" fill="none" stroke="#ff0000" stroke-width="2" stroke-miterlimit="10" pointer-events="stroke"/>
        <path d="M 24.5 40 L 16.5 44 L 16.5 36 Z" fill="#ff0000" stroke="none" stroke-width="2" stroke-miterlimit="10" pointer-events="all"/>
        <path d="M 91.5 40 L 119 40" fill="none" stroke="#ff0000" stroke-width="2" stroke-miterlimit="10" pointer-events="stroke"/>
        <path d="M 127 40 L 119 44 L 119 36 Z" fill="#ff0000" stroke="none" stroke-width="2" stroke-miterlimit="10" pointer-events="all"/>
        <rect x="128" y="20" width="65" height="40" fill="#ffe6cc" stroke="#ff8000" stroke-width="2" pointer-events="all"/>
        <g transform="translate(-0.5 -0.5)">
            <text x="161" y="49" fill="#ff8000" font-family="Helvetica" font-size="24px" text-anchor="middle">
                2
            </text>
        </g>
        <path d="M 193 40 L 219 40" fill="none" stroke="#ff8000" stroke-width="2" stroke-miterlimit="10" pointer-events="stroke"/>
        <path d="M 227 40 L 219 44 L 219 36 Z" fill="#ff8000" stroke="none" stroke-width="2" stroke-miterlimit="10" pointer-events="all"/>
        <rect x="228" y="20" width="65" height="40" fill="#ffffcc" stroke="#ffff00" stroke-width="2" pointer-events="all"/>
        <g transform="translate(-0.5 -0.5)">
            <text x="261" y="49" fill="#ffff00" font-family="Helvetica" font-size="24px" text-anchor="middle">
                3
            </text>
        </g>
        <path d="M 293 40 L 319 40" fill="none" stroke="#ffff00" stroke-width="2" stroke-miterlimit="10" pointer-events="stroke"/>
        <path d="M 327 40 L 319 44 L 319 36 Z" fill="#ffff00" stroke="none" stroke-width="2" stroke-miterlimit="10" pointer-events="all"/>
        <rect x="328" y="20" width="65" height="40" fill="#e6ffcc" stroke="#80ff00" stroke-width="2" pointer-events="all"/>
        <g transform="translate(-0.5 -0.5)">
            <text x="361" y="49" fill="#80ff00" font-family="Helvetica" font-size="24px" text-anchor="middle">
                4
            </text>
        </g>
        <path d="M 393 40 L 419 40" fill="none" stroke="#80ff00" stroke-width="2" stroke-miterlimit="10" pointer-events="stroke"/>
        <path d="M 427 40 L 419 44 L 419 36 Z" fill="#80ff00" stroke="none" stroke-width="2" stroke-miterlimit="10" pointer-events="all"/>
        <ellipse cx="443" cy="40" rx="15" ry="15" fill="#e6e6e6" stroke="#000000" stroke-width="2" pointer-events="all"/>
    </g>
</svg>
