<svg xmlns="http://www.w3.org/2000/svg" version="1.1" width="357px" height="139px" viewBox="-0.5 -0.5 357 139">
    <defs/>
    <g>
        <rect x="25" y="18" width="65" height="40" fill="#ffcccc" stroke="#ff0000" stroke-width="2" pointer-events="all"/>
        <g transform="translate(-0.5 -0.5)">
            <text x="58" y="47" fill="#ff0000" font-family="Helvetica" font-size="24px" text-anchor="middle">
                1
            </text>
        </g>
        <path d="M 41.25 17 L 41.25 8 L 35 8 L 7.5 8 L 7.5 38 L 16 38" fill="none" stroke="#ff0000" stroke-width="2" stroke-miterlimit="10" pointer-events="stroke"/>
        <path d="M 24 38 L 16 42 L 16 34 Z" fill="#ff0000" stroke="none" stroke-width="2" stroke-miterlimit="10" pointer-events="all"/>
        <path d="M 91 38 L 116 38" fill="none" stroke="#ff0000" stroke-width="2" stroke-miterlimit="10" pointer-events="stroke"/>
        <path d="M 124 38 L 116 42 L 116 34 Z" fill="#ff0000" stroke="none" stroke-width="2" stroke-miterlimit="10" pointer-events="all"/>
        <rect x="125" y="18" width="65" height="40" fill="#ffe6cc" stroke="#ff8000" stroke-width="2" pointer-events="all"/>
        <g transform="translate(-0.5 -0.5)">
            <text x="158" y="47" fill="#ff8000" font-family="Helvetica" font-size="24px" text-anchor="middle">
                2
            </text>
        </g>
        <path d="M 191 38 L 257.5 38 L 257.5 49" fill="none" stroke="#ff8000" stroke-width="2" stroke-miterlimit="10" pointer-events="stroke"/>
        <path d="M 257.5 57 L 253.5 49 L 261.5 49 Z" fill="#ff8000" stroke="none" stroke-width="2" stroke-miterlimit="10" pointer-events="all"/>
        <rect x="125" y="98" width="65" height="40" fill="#ffffcc" stroke="#ffff00" stroke-width="2" pointer-events="all"/>
        <g transform="translate(-0.5 -0.5)">
            <text x="158" y="127" fill="#ffff00" font-family="Helvetica" font-size="24px" text-anchor="middle">
                3
            </text>
        </g>
        <path d="M 191 118 L 257.5 118 L 257.5 107" fill="none" stroke="#ffff00" stroke-width="2" stroke-miterlimit="10" pointer-events="stroke"/>
        <path d="M 257.5 99 L 261.5 107 L 253.5 107 Z" fill="#ffff00" stroke="none" stroke-width="2" stroke-miterlimit="10" pointer-events="all"/>
        <rect x="225" y="58" width="65" height="40" fill="#e6ffcc" stroke="#80ff00" stroke-width="2" pointer-events="all"/>
        <g transform="translate(-0.5 -0.5)">
            <text x="258" y="87" fill="#80ff00" font-family="Helvetica" font-size="24px" text-anchor="middle">
                4
            </text>
        </g>
        <path d="M 291 78 L 316 78" fill="none" stroke="#80ff00" stroke-width="2" stroke-miterlimit="10" pointer-events="stroke"/>
        <path d="M 324 78 L 316 82 L 316 74 Z" fill="#80ff00" stroke="none" stroke-width="2" stroke-miterlimit="10" pointer-events="all"/>
        <ellipse cx="340" cy="78" rx="15" ry="15" fill="#e6e6e6" stroke="#000000" stroke-width="2" pointer-events="all"/>
    </g>
</svg>
