<svg xmlns="http://www.w3.org/2000/svg" version="1.1" width="257px" height="139px" viewBox="-0.5 -0.5 257 139">
    <defs/>
    <g>
        <rect x="24.57" y="18" width="65" height="40" fill="#ffcccc" stroke="#ff0000" stroke-width="2" pointer-events="all"/>
        <g transform="translate(-0.5 -0.5)">
            <text x="57" y="47" fill="#ff0000" font-family="Helvetica" font-size="24px" text-anchor="middle">1</text>
        </g>
        <path d="M 40.82 17 L 40.82 8 L 34.57 8 L 7.1 8 L 7.1 38 L 15.57 38" fill="none" stroke="#ff0000" stroke-width="2" stroke-miterlimit="10" pointer-events="stroke"/>
        <path d="M 23.57 38 L 15.57 42 L 15.57 34 Z" fill="#ff0000" stroke="none" stroke-width="2" stroke-miterlimit="10" pointer-events="all"/>
        <path d="M 89.57 38 L 114.33 38" fill="none" stroke="#ff0000" stroke-width="2" stroke-miterlimit="10" pointer-events="stroke"/>
        <path d="M 122.33 38 L 114.33 42 L 114.33 34 Z" fill="#ff0000" stroke="none" stroke-width="2" stroke-miterlimit="10" pointer-events="all"/>
        <rect x="124.57" y="18" width="65" height="40" fill="#ffe6cc" stroke="#ff8000" stroke-width="2" pointer-events="all"/>
        <g transform="translate(-0.5 -0.5)">
            <text x="157" y="47" fill="#ff8000" font-family="Helvetica" font-size="24px" text-anchor="middle">2</text>
        </g>
        <path d="M 190.57 38 L 239.6 38 L 239.58 54" fill="none" stroke="#ff8000" stroke-width="2" stroke-miterlimit="10" pointer-events="stroke"/>
        <path d="M 239.57 62 L 235.58 54 L 243.58 54 Z" fill="#ff8000" stroke="none" stroke-width="2" stroke-miterlimit="10" pointer-events="all"/>
        <rect x="24.57" y="98" width="65" height="40" fill="#ffffcc" stroke="#ffff00" stroke-width="2" pointer-events="all"/>
        <g transform="translate(-0.5 -0.5)">
            <text x="57" y="127" fill="#ffff00" font-family="Helvetica" font-size="24px" text-anchor="middle">3</text>
        </g>
        <path d="M 90.57 118 L 115.57 118" fill="none" stroke="#ffff00" stroke-width="2" stroke-miterlimit="10" pointer-events="stroke"/>
        <path d="M 123.57 118 L 115.57 122 L 115.57 114 Z" fill="#ffff00" stroke="none" stroke-width="2" stroke-miterlimit="10" pointer-events="all"/>
        <rect x="124.57" y="98" width="65" height="40" fill="#e6ffcc" stroke="#80ff00" stroke-width="2" pointer-events="all"/>
        <g transform="translate(-0.5 -0.5)">
            <text x="157" y="127" fill="#80ff00" font-family="Helvetica" font-size="24px" text-anchor="middle">4</text>
        </g>
        <path d="M 190.57 118 L 239.6 118 L 239.58 102" fill="none" stroke="#80ff00" stroke-width="2" stroke-miterlimit="10" pointer-events="stroke"/>
        <path d="M 239.57 94 L 243.58 102 L 235.58 102 Z" fill="#80ff00" stroke="none" stroke-width="2" stroke-miterlimit="10" pointer-events="all"/>
        <ellipse cx="239.57" cy="78" rx="15" ry="15" fill="#e6e6e6" stroke="#000000" stroke-width="2" pointer-events="all"/>
    </g>
</svg>
