<svg xmlns="http://www.w3.org/2000/svg" version="1.1" width="157px" height="239px" viewBox="-0.5 -0.5 157 239">
    <defs/>
    <g>
        <rect x="25.08" y="18" width="65" height="40" fill="#ffcccc" stroke="#ff0000" stroke-width="2" pointer-events="all"/>
        <g transform="translate(-0.5 -0.5)">
            <text x="58" y="47" fill="#ff0000" font-family="Helvetica" font-size="24px" text-anchor="middle">1</text>
        </g>
        <path d="M 41.33 17 L 41.33 8 L 35.08 8 L 7.58 8 L 7.58 38 L 16.08 38" fill="none" stroke="#ff0000" stroke-width="2" stroke-miterlimit="10" pointer-events="stroke"/>
        <path d="M 24.08 38 L 16.08 42 L 16.08 34 Z" fill="#ff0000" stroke="none" stroke-width="2" stroke-miterlimit="10" pointer-events="all"/>
        <path d="M 91.08 38 L 140.1 38 L 140.08 104" fill="none" stroke="#ff0000" stroke-width="2" stroke-miterlimit="10" pointer-events="stroke"/>
        <path d="M 140.08 112 L 136.08 104 L 144.08 104 Z" fill="#ff0000" stroke="none" stroke-width="2" stroke-miterlimit="10" pointer-events="all"/>
        <rect x="25.08" y="78" width="65" height="40" fill="#ffe6cc" stroke="#ff8000" stroke-width="2" pointer-events="all"/>
        <g transform="translate(-0.5 -0.5)">
            <text x="58" y="107" fill="#ff8000" font-family="Helvetica" font-size="24px" text-anchor="middle">2</text>
        </g>
        <path d="M 91.08 98 L 110.1 98 L 110.1 117.4 L 120.2 117.4" fill="none" stroke="#ff8000" stroke-width="2" stroke-miterlimit="10" pointer-events="stroke"/>
        <path d="M 128.2 117.39 L 120.2 121.4 L 120.2 113.4 Z" fill="#ff8000" stroke="none" stroke-width="2" stroke-miterlimit="10" pointer-events="all"/>
        <rect x="25.08" y="137" width="65" height="40" fill="#ffffcc" stroke="#ffff00" stroke-width="2" pointer-events="all"/>
        <g transform="translate(-0.5 -0.5)">
            <text x="58" y="167" fill="#ffff00" font-family="Helvetica" font-size="24px" text-anchor="middle">3</text>
        </g>
        <path d="M 91.08 157 L 110.1 157 L 110.1 138.6 L 120.2 138.6" fill="none" stroke="#ffff00" stroke-width="2" stroke-miterlimit="10" pointer-events="stroke"/>
        <path d="M 128.2 138.61 L 120.2 142.6 L 120.2 134.6 Z" fill="#ffff00" stroke="none" stroke-width="2" stroke-miterlimit="10" pointer-events="all"/>
        <rect x="25.08" y="198" width="65" height="40" fill="#e6ffcc" stroke="#80ff00" stroke-width="2" pointer-events="all"/>
        <g transform="translate(-0.5 -0.5)">
            <text x="58" y="227" fill="#80ff00" font-family="Helvetica" font-size="24px" text-anchor="middle">4</text>
        </g>
        <path d="M 91.08 218 L 140.1 218 L 140.08 152" fill="none" stroke="#80ff00" stroke-width="2" stroke-miterlimit="10" pointer-events="stroke"/>
        <path d="M 140.08 144 L 144.08 152 L 136.08 152 Z" fill="#80ff00" stroke="none" stroke-width="2" stroke-miterlimit="10" pointer-events="all"/>
        <ellipse cx="140.08" cy="128" rx="15" ry="15" fill="#e6e6e6" stroke="#000000" stroke-width="2" pointer-events="all"/>
    </g>
</svg>
